<svg xmlns="http://www.w3.org/2000/svg" width="299" height="75" viewBox="0 0 299 75"><g><g><g><g><g><path fill="#00285e" d="M.02.167h297.394v49.562H.02z"/></g><g><g><path fill="#fff" d="M191.706 36.057V13.855h-7.81V23.99l-5.764-10.135h-8.023v22.267h7.843V25.971h.164l5.813 10.086zm-22.383 0l-7.744-22.202h-9.153l-7.663 22.202h8.727l.704-2.767h5.518l.704 2.767zm-10.675-7.925h-3.275l1.637-6.811zm-12.313-3.176c0-6.893-5.322-11.69-12.215-11.69s-12.198 4.797-12.198 11.69 5.305 11.69 12.198 11.69c6.926 0 12.215-4.797 12.215-11.69zm-8.138 0a4.077 4.077 0 0 1-4.06 4.159 4.093 4.093 0 1 1 4.06-4.16zm-17.552 11.1V13.856h-7.942V23.99l-5.747-10.135h-8.04v22.267h7.844V25.971h.098l5.813 10.086zm-24.56 0V13.856h-8.188v22.202zM70.654 23.81l-4.698-9.955h-9.432v22.251h8.187V25.971l3.668 10.086h4.781l3.373-10.086v10.086h8.35V13.855h-9.43z"/></g><g><path fill="#fff" d="M203.348 36.065V13.862h7.99v15.113h6.55v7.09zm16.537 0V13.862h8.105v22.203zm24.086 0l-5.813-10.086h-.082v10.135h-7.86V13.862h8.04l5.747 10.135V13.862h7.827v22.203zm10.053 0V13.862h14.474v6.157h-6.55v1.997h6.06v5.813h-6.092v2.063h6.762v6.173zm24.757.523a13.1 13.1 0 0 1-8.924-2.881l3.275-5.485a7.909 7.909 0 0 0 4.912 1.899c1.425 0 2.129-.41 2.129-1.048 0-.638-.655-.933-2.538-1.359l-1.294-.295c-3.962-.917-5.632-2.98-5.632-6.402a7.499 7.499 0 0 1 3.684-6.369 10.987 10.987 0 0 1 5.534-1.326c2.831-.094 5.622.69 7.99 2.243l-2.881 5.502a8.088 8.088 0 0 0-4.323-1.54c-1.392 0-1.785.492-1.785 1.016s.803.966 1.916 1.244l1.294.278c3.831.884 6.402 2.85 6.402 6.55a7.27 7.27 0 0 1-2.882 5.845 11.2 11.2 0 0 1-6.877 2.128z"/></g></g><g><g><path fill="#e03a3e" d="M.02.167h49.563v49.562H.02z"/></g><g><g><path fill="#fff" d="M37.86 32.946c-4.34-.393-7.942-.59-7.942-.59-2.573.03-5.074.86-7.155 2.375a23.48 23.48 0 0 0-6.828-1.85 45.616 45.616 0 0 0-6.746 0 6.664 6.664 0 0 0 2.162 2.914c1.49-.255 2.993-.42 4.502-.491 4.34.13 5.19.671 5.19.671l7.549 2.75c2.18.677 4.476.9 6.746.656 4.666-.262 4.732-1.18 4.732-1.18-1.324.383-2.7.56-4.077.525a14.049 14.049 0 0 1-4.06-.393 27.671 27.671 0 0 1-5.65-2.227 8.908 8.908 0 0 1 2.964 0c1.664.274 3.305.668 4.912 1.179 1.929.536 3.96.58 5.91.13 2.293-.72 2.686-1.767 2.686-1.767-.976.33-1.987.55-3.013.655a14.606 14.606 0 0 1-4.453-.508 52.576 52.576 0 0 0-5.502-.999c-3.274-.196-4.339.868-4.339.868a17.845 17.845 0 0 0-1.9-.802 7.057 7.057 0 0 1 4.913-1.376c2.103.183 4.186.555 6.222 1.114 2.204.673 4.558.673 6.762 0 3.079-1.31 2.948-2.555 2.948-2.555a15.8 15.8 0 0 1-6.534.901z"/></g><g><path fill="#fff" d="M33.193 40.183a17.717 17.717 0 0 1-7.417-1.637 26.41 26.41 0 0 0-6.648-2.243 21.596 21.596 0 0 0-6.959.524 7.466 7.466 0 0 0 2.162 2.095 7.04 7.04 0 0 1 3.487-.327 19.649 19.649 0 0 1 7.074 1.31A14.13 14.13 0 0 0 31.26 41.1a21.286 21.286 0 0 0 7.352-1.523c-1.776.42-3.596.623-5.42.606z"/></g><g><path fill="#fff" d="M28.543 41.689a36.726 36.726 0 0 1-6.697-1.638c-4.404-1.195-6.173-.344-6.173-.344 4.274 3.75 10.758 3.488 10.758 3.488 7.548-.197 9.382-2.03 9.382-2.03-2.36.685-4.837.864-7.27.524z"/></g><g><path fill="#fff" d="M46.472 22.792s.23-.36-.655-.36l-16.57-1.081 16.767-.72s.327 0 .36-.263c0 0 0-.294-.426-.327l-16.767-1.212 15.85-.802s.688 0 .688-.23c0-.228 0-.327-.95-.392l-16.046-1.08 15.719-.852s.327 0 .196-.279c-.13-.278-.098-.18-1.195-.31l-14.196-1.18 12.804-1.031s.59 0 .557-.164c-.033-.164 0-.36-.884-.458l-10.283-.819s-.393-.164-.458.36v.295c0 .033-.295.098-.426 0-.01.098-.01.197 0 .295 0 0 0 .098-.393.163a3.276 3.276 0 0 0-.23.524s-.589.328-.654-.556c0 0-.099-1.638-.917-1.9a2.407 2.407 0 0 0-1.18-.262 1.932 1.932 0 0 0-.982.623.475.475 0 0 0-.163.425s0 .262-.197.262c-.196 0-.426.131-.556 0a.573.573 0 0 0-.131-.36s-.262 0-.262-.23a.622.622 0 0 0-.18-.556s-.475-.475.278-.491c.326-.045.656-.045.982 0 .371-.066.714-.243.983-.508a2.292 2.292 0 0 1 1.277-.229 3.275 3.275 0 0 1 2.62 1.425l.163.196 8.187-.72s.524 0 .524-.164.164-.131-.622-.246l-10.627-.786 6.828-1.342s.393-.098.393-.197c0-.098.393-.13-1.342-.327a40.003 40.003 0 0 0-8.187 0l-7.45.196 5.894.459c-.999.475-1.962 1.022-2.882 1.637l-11.085.197 9.448.867a17.83 17.83 0 0 0-3.013 3.406l-9.513.213 8.858.851a20.763 20.763 0 0 0-1.473 3.03l-8.334.196 8.072.868a22.169 22.169 0 0 0-.475 3.094l-7.941.197 7.875.982a13.77 13.77 0 0 0 .459 3.275l-8.007.327 8.187.852a8.858 8.858 0 0 0 1.506 3.094l-8.432.213 9.12.72c.167.304.364.59.59.852 1.704.258 3.36.771 4.912 1.523a8.187 8.187 0 0 1 3.192-1.458 6.779 6.779 0 0 0-1.8 0s-.656 0-.656-.262c0 0-.229-.098.917-.392 0 0 .983-.164 1.015-.754 0 0 .36-.77-1.408-3.52 0 0-.229-.13-.425-.884 0 0-1.016-2.341-1.376-2.93 0 0-.59 2.193-.786 2.799a.737.737 0 0 0 0 .786c.234.387.37.825.393 1.277 0 0-.163.524-.622 1.768-.11.338-.155.694-.13 1.048.066.251.1.51.097.77 0 0 0 .393-.786.36a1.637 1.637 0 0 0-.982-.066s-1.474.099-1.474-.229c0 0-.196-.098.852-.327a3.586 3.586 0 0 0 1.08-.72s.262 0 .328-.901v-2.456l.13-.426c.02-.207.02-.415 0-.622a2.472 2.472 0 0 1-.261-.933 17.847 17.847 0 0 1 .098-3.079 2.03 2.03 0 0 0 .131-.458.393.393 0 0 1 0-.491s.688-1.08.786-1.31c.101-.185.147-.396.131-.606 0 0-.23-.164 0-.491 0 0 .328-.328.328-.459 0-.13-.197-.163-.164-.294.033-.131 0-.099.262-.36a1.965 1.965 0 0 0-.098-.786s0-.328-.459 0c-.472.21-.993.289-1.506.229 0 0-.459 0-.426-.393.091-.193.213-.37.36-.524.171-.222.314-.464.426-.72.025-.234.092-.461.196-.672.158-.113.328-.206.508-.278.11-.12.19-.267.23-.426a.639.639 0 0 1 .376-.393c.196-.064.4-.102.606-.114h.474s.36 0 .36-.295c0 0 0-.36-.196-.393 0 0-.147 0-.164-.295V13a.851.851 0 0 0-.294-.458s-.131-.131 0-.23a.966.966 0 0 0 .327-.327c.055-.21.132-.412.23-.606l.098-.147a.622.622 0 0 0 .229-.458.655.655 0 0 1 0-.623s0-.327.164-.425c.163-.099.49-.393.72 0l.131.327a.311.311 0 0 0 .197.197.196.196 0 0 1 .196.229.213.213 0 0 0 .197.164s.294 0 .294.262a1.637 1.637 0 0 0 0 .458.77.77 0 0 0 .23.18s.196.148.163.246c.057.11.1.224.131.344.026.184.026.372 0 .556a.688.688 0 0 1-.294.393s-.295.164-.23.295c.07.085.16.152.262.196 0 0 .131.099 0 .459 0 0-.196.295.246.393.334.188.602.474.77.819.184.283.472.483.802.556 0 0 .327.098.393.36a.999.999 0 0 0 .59.312c.47.289.963.54 1.473.753.364.092.737.147 1.113.163.199.09.408.157.622.197 0 0 .688 0 .852.23 0 0 .262.523-.524.72l-.491-.164s.163-.131-1.343-.328l-1.31-.196a6.008 6.008 0 0 1-1.506-.688c.017.235.137.45.327.59.173.068.338.156.491.262 0 0 .099.36-.163.294-.224-.02-.439-.099-.623-.229l-.49-.72-.345-.688s-.393-.262-.262.23l.262.228c.009.142.009.284 0 .426a.77.77 0 0 0 .295.393s.311.197.246.295c-.066.098-.164.23-.508 0s-.098 0-.098 0a2.619 2.619 0 0 1-.262-.426s.13-.262-.23-.491a.606.606 0 0 1-.294-.491.41.41 0 0 0-.23-.459s-.425-.114-.163.328l.164.262a.491.491 0 0 1 0 .327c.023.12.094.227.196.295a.59.59 0 0 1 .098.36.557.557 0 0 0 .262.131s.131.262-.196.393a.491.491 0 0 1-.426-.327.311.311 0 0 0-.262-.328s-.163-.098-.262-.557c0 0-.163-.654-.622.131 0 0-.557.655-.458 1.016l.098.262c.045.07.045.159 0 .229a.311.311 0 0 0-.098.295s0 .458.622 1.08c0 0 .655.426.557 1.981a29.013 29.013 0 0 0 0 3.275c.002.4.14.787.393 1.097.468.447.808 1.013.982 1.637.096.706.14 1.417.13 2.129-.007.352.072.7.23 1.015.206.254.31.574.295.9a19.21 19.21 0 0 1 3.144-.327l-1.474-.23 15.882-.867s.54 0 .704-.327c0 0 .197-.197-.458-.328l-14.736-1.473 15.882-.54a.95.95 0 0 0 .491-.165s.23-.262-.098-.327l-16.242-1.637 16.602-.426s.426 0 .557-.262c0 0 .164-.262-.196-.262L29.46 23.725l16.635-.655a.622.622 0 0 0 .377-.278z"/></g><g><path fill="#fff" d="M20.766 16.155s-.115 0-.557.589c0 0-.18.246.279.131h.294s.197 0 .18-.164c-.016-.164-.065-.655-.196-.556z"/></g></g></g></g><g><g><path fill="#fff" d="M54.724 66.07c.03.168.03.34 0 .507a2.161 2.161 0 0 1-2.112 1.425 1.359 1.359 0 0 1-1.457-1.49c0-1.687 2.014-1.932 3.651-1.932zm1.638-2.358c0-1.72-.639-3.504-3.275-3.504a5.65 5.65 0 0 0-2.849.737l.36.95a4.142 4.142 0 0 1 2.26-.64 1.752 1.752 0 0 1 1.948 1.982v.18c-3.324 0-5.174 1.195-5.174 3.275a2.456 2.456 0 0 0 2.636 2.472 3.275 3.275 0 0 0 2.636-1.277l.131 1.064h1.392a15.375 15.375 0 0 1-.114-2.046z"/></g><g><path fill="#fff" d="M71.787 68.437c-1.184.438-2.437.66-3.7.655a5.616 5.616 0 0 1-6.14-6.042 5.993 5.993 0 0 1 6.55-6.173 7.45 7.45 0 0 1 2.996.557l-.459 1.277a5.993 5.993 0 0 0-2.636-.507 4.486 4.486 0 0 0-4.912 4.813 4.388 4.388 0 0 0 4.634 4.912 4.912 4.912 0 0 0 2.046-.327v-3.668h-2.325V62.69h3.946z"/></g><g><path fill="#fff" d="M74.078 63.057v-2.67h1.359v1.638a2.587 2.587 0 0 1 2.39-1.883h.443v1.474a2.816 2.816 0 0 0-.54 0 2.194 2.194 0 0 0-2.047 2.014 5.192 5.192 0 0 0 0 .736v4.569h-1.638z"/></g><g><path fill="#fff" d="M79.948 68.963V60.35h1.637v8.58zm1.467-10.302a.917.917 0 0 1-.714.249.917.917 0 0 1-.95-.95.982.982 0 1 1 1.949 0 .917.917 0 0 1-.285.701z"/></g><g><path fill="#fff" d="M84.115 62.713v-2.325h1.375v1.392a2.98 2.98 0 0 1 2.718-1.637 2.538 2.538 0 0 1 2.473 1.85c.23-.447.567-.83.982-1.114a2.849 2.849 0 0 1 1.883-.605c1.146 0 2.833.736 2.833 3.733v5.026h-1.523v-4.912c0-1.637-.622-2.636-1.867-2.636-.85.035-1.59.588-1.866 1.392-.078.255-.122.52-.131.786v5.305h-1.457v-5.141c0-1.36-.606-2.342-1.801-2.342a2.161 2.161 0 0 0-1.933 1.638 1.9 1.9 0 0 0-.114.77v5.157h-1.54z"/></g><g><path fill="#fff" d="M103.403 66.07c.022.168.022.339 0 .507a2.178 2.178 0 0 1-2.128 1.425 1.359 1.359 0 0 1-1.441-1.49c0-1.687 1.998-1.932 3.635-1.932zm1.621-2.456c0-1.72-.638-3.504-3.274-3.504a5.535 5.535 0 0 0-2.833.737l.344 1.048a4.225 4.225 0 0 1 2.26-.639 1.768 1.768 0 0 1 1.964 1.981v.18c-3.324 0-5.174 1.196-5.174 3.275a2.44 2.44 0 0 0 2.62 2.472 3.275 3.275 0 0 0 2.636-1.277l.131 1.064h1.408a12.903 12.903 0 0 1-.13-2.046z"/></g><g><path fill="#fff" d="M107.546 56.376h1.637v12.591h-1.637z"/></g><g><path fill="#fff" d="M117.562 65.332a3.045 3.045 0 0 1-.082.688 2.358 2.358 0 0 1-2.292 1.85c-1.67 0-2.538-1.326-2.538-3.176s.933-3.275 2.57-3.275a2.292 2.292 0 0 1 2.26 1.801c.05.215.078.435.082.655zm0-8.956v5.076a2.849 2.849 0 0 0-2.587-1.294 4.126 4.126 0 0 0-3.864 4.601 3.946 3.946 0 0 0 3.7 4.372 3.111 3.111 0 0 0 2.898-1.637v1.473h1.392v-12.59z"/></g><g><path fill="#fff" d="M121.71 68.967v-8.612h1.638v8.58zm1.468-10.302a.917.917 0 0 1-.715.25.9.9 0 0 1-.933-.95.966.966 0 0 1 1.932 0 .917.917 0 0 1-.284.7z"/></g><g><path fill="#fff" d="M138.838 68.437a10.709 10.709 0 0 1-3.7.655 5.616 5.616 0 0 1-6.157-6.042 5.993 5.993 0 0 1 6.55-6.173 7.58 7.58 0 0 1 2.995.557l-.392 1.244a6.074 6.074 0 0 0-2.751-.507 4.47 4.47 0 0 0-4.814 4.814 4.388 4.388 0 0 0 4.617 4.912 4.912 4.912 0 0 0 2.063-.328v-3.635h-2.357V62.69h3.946z"/></g><g><path fill="#fff" d="M141.112 63.057v-2.67h1.375v1.638a2.603 2.603 0 0 1 2.407-1.883h.426v1.474a2.736 2.736 0 0 0-.54 0 2.178 2.178 0 0 0-2.047 2.014 5.059 5.059 0 0 0 0 .736v4.569h-1.638z"/></g><g><path fill="#fff" d="M147.724 64.613a5.097 5.097 0 0 0 0 .082zm0 .041c.014-1.609.802-3.315 2.636-3.315 1.85 0 2.571 1.817 2.571 3.274 0 1.867-1.097 3.275-2.62 3.275-1.511 0-2.571-1.356-2.587-3.234zm0 .041zm6.812-.082a4.06 4.06 0 0 0-4.143-4.404 4.208 4.208 0 0 0-4.273 4.552 4.093 4.093 0 0 0 4.126 4.42 4.224 4.224 0 0 0 4.29-4.568z"/></g><g><path fill="#fff" d="M163.707 66.61v2.357h-1.392v-1.391a3.275 3.275 0 0 1-2.849 1.637c-1.342 0-2.963-.77-2.963-3.766v-5.092h1.555v4.732c0 1.637.524 2.767 1.932 2.767a2.26 2.26 0 0 0 2.063-1.457c.092-.252.136-.518.131-.786v-5.256h1.638z"/></g><g><path fill="#fff" d="M167.866 64.046c.007-.21.04-.419.098-.622a2.44 2.44 0 0 1 2.358-1.915c1.654 0 2.57 1.539 2.57 3.176 0 1.916-.965 3.275-2.603 3.275a2.44 2.44 0 0 1-2.357-1.834 2.554 2.554 0 0 1 0-.639zm-1.67 8.482h1.637v-4.683c.58.884 1.58 1.4 2.636 1.36 2.03 0 3.946-1.524 3.946-4.635a3.88 3.88 0 0 0-3.667-4.338 3.275 3.275 0 0 0-3.062 1.637v-1.474h-1.392v2.8z"/></g><g><path fill="#fff" d="M186.297 68.68a5.714 5.714 0 0 1-2.472.507 4.093 4.093 0 0 1-4.241-4.388 4.372 4.372 0 0 1 4.617-4.584 5.027 5.027 0 0 1 2.178.458l-.36 1.196a3.668 3.668 0 0 0-1.818-.41 2.98 2.98 0 0 0-3.029 3.275 2.93 2.93 0 0 0 2.98 3.275 4.224 4.224 0 0 0 1.916-.41z"/></g><g><path fill="#fff" d="M189.002 64.613a5.097 5.097 0 0 0 0 .082zm0 .041c.013-1.609.802-3.315 2.636-3.315 1.85 0 2.571 1.817 2.571 3.274 0 1.867-1.064 3.275-2.603 3.275-1.528 0-2.588-1.356-2.604-3.234zm6.812-.04a4.06 4.06 0 0 0-4.143-4.405 4.208 4.208 0 0 0-4.257 4.552 4.093 4.093 0 0 0 4.11 4.42 4.224 4.224 0 0 0 4.29-4.568z"/></g><g><path fill="#fff" d="M197.78 62.713v-2.325h1.36v1.392a2.996 2.996 0 0 1 2.718-1.637 2.505 2.505 0 0 1 2.472 1.85c.23-.447.567-.83.983-1.113a2.833 2.833 0 0 1 1.866-.606c1.163 0 2.85.736 2.85 3.733v5.026h-1.524v-4.912c0-1.637-.622-2.636-1.866-2.636-.85.035-1.59.588-1.867 1.392-.086.253-.13.519-.13.786v5.305h-1.524v-5.141c0-1.36-.605-2.342-1.8-2.342a2.178 2.178 0 0 0-1.933 1.638 2.227 2.227 0 0 0-.13.77v5.157h-1.523z"/></g><g><path fill="#fff" d="M214.17 64.046c.008-.21.041-.419.099-.622a2.44 2.44 0 0 1 2.374-1.915c1.637 0 2.554 1.539 2.554 3.176 0 1.916-.982 3.275-2.62 3.275a2.407 2.407 0 0 1-2.34-1.834 2.554 2.554 0 0 1 0-.639zm-1.588 8.482h1.638v-4.683a3.013 3.013 0 0 0 2.652 1.36c2.014 0 3.914-1.524 3.914-4.635a3.88 3.88 0 0 0-3.652-4.338 3.275 3.275 0 0 0-3.062 1.637l-.098-1.474H212.6v2.8z"/></g><g><path fill="#fff" d="M227.139 66.07c.022.168.022.339 0 .507a2.178 2.178 0 0 1-2.113 1.425 1.359 1.359 0 0 1-1.457-1.49c0-1.687 1.998-1.932 3.635-1.932zm1.637-2.456c0-1.72-.639-3.504-3.275-3.504a5.65 5.65 0 0 0-2.849.736l.36 1.048a4.142 4.142 0 0 1 2.26-.638 1.768 1.768 0 0 1 1.949 1.981v.18c-3.324 0-5.175 1.195-5.175 3.275a2.456 2.456 0 0 0 2.637 2.472 3.275 3.275 0 0 0 2.636-1.277l.114 1.064h1.409a15.176 15.176 0 0 1-.131-2.046z"/></g><g><path fill="#fff" d="M231.281 62.714v-2.325h1.392v1.424a3.144 3.144 0 0 1 2.833-1.637c1.195 0 3.045.704 3.045 3.651v5.108h-1.555v-4.912c0-1.391-.524-2.537-1.998-2.537a2.26 2.26 0 0 0-2.096 1.637 2.047 2.047 0 0 0-.115.737v5.157h-1.637z"/></g><g><path fill="#fff" d="M241.482 60.355l1.866 5.076c.197.556.426 1.244.557 1.768.148-.524.328-1.179.54-1.801l1.638-5.043h1.637l-2.341 6.124a13.246 13.246 0 0 1-2.947 5.37 4.24 4.24 0 0 1-1.916.999l-.393-1.294c.497-.168.959-.43 1.359-.77a4.716 4.716 0 0 0 1.326-1.735c.057-.113.095-.235.115-.36a1.031 1.031 0 0 0-.115-.41l-3.045-7.924z"/></g></g></g></g></g></svg>